<?xml version="1.0" encoding="UTF-8" standalone="no"?>
<!-- Created with Inkscape (http://www.inkscape.org/) -->

<svg
   width="182.28197mm"
   height="194.73895mm"
   viewBox="0 0 182.28197 194.73895"
   version="1.1"
   id="svg1"
   xml:space="preserve"
   inkscape:version="1.4.2 (ebf0e940d0, 2025-05-08)"
   sodipodi:docname="nowebgpu.svg"
   xmlns:inkscape="http://www.inkscape.org/namespaces/inkscape"
   xmlns:sodipodi="http://sodipodi.sourceforge.net/DTD/sodipodi-0.dtd"
   xmlns="http://www.w3.org/2000/svg"
   xmlns:svg="http://www.w3.org/2000/svg"><sodipodi:namedview
     id="namedview1"
     pagecolor="#ffffff"
     bordercolor="#000000"
     borderopacity="0.25"
     inkscape:showpageshadow="2"
     inkscape:pageopacity="0.0"
     inkscape:pagecheckerboard="0"
     inkscape:deskcolor="#d1d1d1"
     inkscape:document-units="mm"
     inkscape:zoom="0.19398324"
     inkscape:cx="-1232.0652"
     inkscape:cy="152.075"
     inkscape:window-width="1916"
     inkscape:window-height="1044"
     inkscape:window-x="0"
     inkscape:window-y="32"
     inkscape:window-maximized="1"
     inkscape:current-layer="layer1" /><defs
     id="defs1" /><g
     inkscape:label="Layer 1"
     inkscape:groupmode="layer"
     id="layer1"
     transform="translate(-0.95641802,2.4520745)"><path
       id="path3"
       style="fill:none;fill-opacity:1;stroke:#999999;stroke-width:2.82476;stroke-linecap:round;stroke-linejoin:round;stroke-opacity:1;paint-order:markers fill stroke"
       d="m 83.328907,69.085251 c 0,2.510235 -2.018444,4.424625 -7.333903,4.424625 -5.31546,0 -2.880316,-0.213123 -2.880318,-2.723358 -1e-6,-2.510234 -0.218725,-6.452254 2.880318,-6.367007 5.31345,0.14616 7.333904,2.155506 7.333903,4.66574 z"
       sodipodi:nodetypes="sssss" /><path
       id="path4"
       style="fill:none;fill-opacity:1;stroke:#999999;stroke-width:2.72965;stroke-linecap:round;stroke-linejoin:round;stroke-opacity:1;paint-order:markers fill stroke"
       d="m 118.9844,68.947112 c 0,2.395258 -2.53219,4.866061 -7.35266,4.866062 -4.82047,3e-6 -5.59374,-2.062295 -5.59374,-4.457556 0,-2.395261 0.77327,-4.216446 5.59374,-4.216443 4.82047,1e-6 7.35266,1.412679 7.35266,3.807937 z"
       sodipodi:nodetypes="sssss" /><path
       style="fill:#999999;fill-opacity:1"
       d="m 34.734894,192.1049 c -0.09701,-0.097 -0.176389,-0.69824 -0.176389,-1.33606 0,-1.14743 0.486387,-2.42953 1.254093,-3.30576 0.532307,-0.60755 0.375105,-1.32527 -1.117855,-5.10367 -0.689998,-1.74625 -1.416639,-3.97672 -1.614758,-4.95661 -0.349438,-1.72831 -2.736268,-8.12167 -4.888094,-13.09324 -1.650907,-3.81425 -2.170351,-6.24246 -2.194946,-10.26056 -0.01924,-3.14326 0.04409,-3.62194 0.735111,-5.55625 1.365083,-3.82116 3.926521,-8.1073 5.532095,-9.25704 0.607051,-0.43471 1.520448,-1.1557 2.029771,-1.60221 0.944125,-0.82769 3.732792,-2.59048 6.35,-4.01401 0.800364,-0.43533 1.871927,-1.02772 2.38125,-1.31643 0.509323,-0.2887 1.640417,-0.9194 2.513542,-1.40155 2.87792,-1.58922 4.365625,-2.63661 4.365625,-3.07354 0,-0.2369 0.486742,-0.87566 1.081649,-1.41945 0.948966,-0.86744 1.083854,-1.13448 1.099612,-2.17687 0.02816,-1.86251 -0.238468,-1.97792 -1.433378,-0.62043 -1.621331,1.84193 -3.129133,1.88671 -3.129133,0.0929 0,-0.42845 -0.294084,-1.16457 -0.65352,-1.63581 -0.943231,-1.23664 -1.611149,-2.87902 -2.273403,-5.59018 -0.608504,-2.49112 -1.10973,-3.27073 -1.75729,-2.7333 -0.281652,0.23375 -0.533693,0.13594 -1.135509,-0.44063 -1.109932,-1.06338 -1.81815,-2.74992 -2.140878,-5.09825 -0.154692,-1.12561 -0.377691,-2.146 -0.495553,-2.26752 -0.117863,-0.12152 -0.577271,-0.0333 -1.020908,0.19616 -1.132348,0.58556 -4.022487,3.31288 -4.308871,4.06613 -0.150295,0.39531 -0.409516,0.59477 -0.700777,0.53924 -0.377659,-0.072 -0.476813,-0.42524 -0.541828,-1.93028 -0.09272,-2.14629 0.365181,-3.6135 1.705207,-5.46387 0.488352,-0.67434 0.887913,-1.35476 0.887913,-1.51205 0,-0.34366 -0.854788,-0.83375 -1.454199,-0.83375 -1.068723,0 -6.004707,-2.886766 -7.012685,-4.101306 -0.490359,-0.590845 -1.104352,-0.491119 -3.094084,0.502548 -2.898864,1.447686 -4.840967,1.76528 -5.192523,0.84914 -0.171151,-0.446013 0.272825,-5.028265 0.649613,-6.704619 l 0.311177,-1.384442 -1.694796,-1.564249 -1.694795,-1.564249 -0.344962,0.644624 c -0.307202,0.574063 -0.273489,0.729565 0.307992,1.420616 1.021048,1.213447 1.31921,2.47055 1.139305,4.80351 -0.274469,3.559255 -2.276594,6.799907 -5.938421,9.611967 -0.947477,0.7276 -2.1823013,1.73963 -2.7440546,2.24896 l -1.0213696,0.92604 0.37982,1.23791 c 0.5722027,1.86493 0.9544499,2.44412 2.3960062,3.63048 1.259008,1.03613 1.399295,1.08473 3.130903,1.08473 2.219154,0 2.25159,0.38155 0.10577,1.24416 -1.81969,0.73151 -7.8744188,1.31821 -10.5740104,1.02462 l -1.78593758,-0.19423 v -1.0551 c 0,-0.89768 0.0714335,-1.03243 0.47877568,-0.90315 0.5796402,0.18397 6.7716361,0.92945 7.7811498,0.9368 0.9527405,0.007 0.7386592,-0.52421 -0.474643,-1.17761 -1.2177675,-0.65582 -2.7374707,-2.35232 -2.9196252,-3.25931 -0.079224,-0.39447 -0.3054725,-0.93744 -0.5027739,-1.2066 -0.3038878,-0.41457 -0.4928953,-0.44773 -1.2363274,-0.21693 -0.4826787,0.14985 -1.3836132,0.35077 -2.0020768,0.44649 l -1.12447918,0.17404 v -1.19605 c 0,-1.27741 -0.0118889,-1.26684 1.84881578,-1.64366 5.4569151,-1.10512 12.1741012,-7.22137 12.1741012,-11.084974 0,-0.590853 0.113196,-1.468969 0.251547,-1.951371 0.37131,-1.294683 -0.187593,-2.852275 -0.983468,-2.740802 -0.772624,0.108217 -0.760904,-0.361412 0.05306,-2.126066 1.083395,-2.34878 1.453501,-3.788862 1.631727,-6.349056 0.210159,-3.018884 -0.270923,-7.138025 -0.976106,-8.357675 -0.278258,-0.481261 -0.505924,-1.044539 -0.505924,-1.25173 0,-0.626217 1.212161,-0.759087 1.94281,-0.21296 1.205726,0.901226 1.259981,1.067623 2.013766,6.176168 0.289992,1.96533 0.03196,4.117707 -0.774722,6.462372 l -0.528062,1.534839 0.723625,0.727137 c 0.397994,0.399926 0.91804,1.011354 1.155658,1.358728 l 0.432033,0.63159 0.457229,-1.057854 c 0.251476,-0.581819 0.569239,-1.529097 0.706141,-2.105061 0.246921,-1.03883 0.571736,-1.865952 1.595102,-4.061834 0.633003,-1.35826 0.667174,-2.41764 0.139457,-4.323381 -0.21558,-0.778522 -0.530335,-2.189401 -0.699455,-3.135286 -0.169121,-0.945886 -0.438186,-2.374636 -0.597924,-3.175 -0.159737,-0.800365 -0.362904,-4.182897 -0.451482,-7.516739 -0.1695,-6.379528 -0.319393,-6.820914 -1.104607,-3.252702 -0.356789,1.621335 -0.686005,2.077264 -1.066348,1.476775 -0.354335,-0.559427 -0.282729,-2.275336 0.186356,-4.465668 0.816595,-3.812987 0.07058,-13.567182 -1.57839,-20.6375 -1.034278,-4.434697 -1.194005,-4.740406 -3.599057,-6.888373 -1.876216,-1.675662 -2.207227,-2.256386 -1.451443,-2.546407 1.232677,-0.473023 4.856083,2.639809 5.91839,5.08443 0.312529,0.719203 0.697633,1.537623 0.855787,1.818713 0.597875,1.06261 0.939207,2.636904 1.538246,7.094716 0.131924,0.981725 0.314826,1.906249 0.406449,2.054498 0.09162,0.148249 0.211829,0.77377 0.267124,1.390046 0.199577,2.224324 0.445869,3.634044 0.634904,3.634044 0.10602,0 0.329451,-0.803672 0.496515,-1.785938 0.56585,-3.326974 1.013103,-5.222347 1.451592,-6.151563 0.240345,-0.509323 0.556992,-1.461823 0.70366,-2.116666 1.366805,-6.102497 4.971504,-13.918338 5.962257,-12.927585 0.08282,0.08282 -0.317696,1.168958 -0.890024,2.41365 -1.920416,4.176489 -3.445642,9.40316 -4.259412,14.596231 -0.275258,1.75656 -0.692475,4.265308 -0.927149,5.574996 -0.879942,4.910868 -1.188156,8.542995 -1.189954,14.022917 -0.002,6.243482 0.773037,14.988745 1.44843,16.342603 0.220687,0.442377 0.401249,1.124171 0.401249,1.515099 0,0.390927 0.238125,1.641836 0.529166,2.779798 0.635805,2.485973 0.637105,2.513542 0.118528,2.513542 -0.225851,0 -0.537041,-0.362599 -0.691532,-0.805774 -0.335406,-0.962144 -0.79001,-0.895295 -1.128437,0.165936 -0.135427,0.424671 -0.776085,2.200879 -1.423684,3.947129 -2.653474,7.155096 -3.108089,8.863542 -2.358572,8.863542 0.185425,0 1.27731,-0.535781 2.426411,-1.190625 1.149102,-0.654844 2.123198,-1.190625 2.164657,-1.190625 0.04146,0 0.765278,-0.477403 1.608484,-1.060897 0.843207,-0.583493 1.755522,-1.208571 2.027366,-1.389062 1.472567,-0.977712 2.900924,-2.057658 4.797404,-3.627203 1.164167,-0.963475 2.533386,-2.043105 3.042709,-2.399178 1.048437,-0.732973 1.761119,-1.478584 2.95786,-3.094526 0.893183,-1.20605 1.741051,-1.660128 2.078955,-1.113388 0.114538,0.185327 0.101578,0.617529 -0.0288,0.960451 -0.294369,0.774249 -1.862069,3.20621 -2.528115,3.921846 -2.280119,2.449883 -3.324005,3.747354 -4.050183,5.03407 -0.465121,0.824151 -0.783825,1.560306 -0.70823,1.635901 0.278478,0.278478 7.070591,-5.459292 8.834222,-7.462883 0.578396,-0.657093 1.138547,-1.194714 1.244778,-1.194714 0.489688,0 5.124249,-5.145998 6.491709,-7.208088 0.433827,-0.654198 0.858841,-0.990994 1.252076,-0.992188 0.813237,-0.0025 0.759747,0.288832 -0.468993,2.554092 -1.050221,1.936149 -2.637574,4.079409 -5.081256,6.860763 -0.687924,0.782982 -1.329419,1.752747 -1.425546,2.155033 -0.09613,0.402286 -0.263672,0.850492 -0.372323,0.996013 -0.108652,0.145521 -0.279593,0.681302 -0.379869,1.190625 -0.100276,0.509323 -0.411575,1.610818 -0.691775,2.447767 -0.90522,2.703869 -1.67436,8.906152 -1.688067,13.612442 -0.0087,2.98521 0.08346,4.38219 0.303599,4.60233 0.360151,0.36015 0.405119,0.20375 0.828139,-2.88041 0.266175,-1.94064 0.616492,-2.70088 1.244554,-2.70088 0.396666,0 1.183099,2.1393 1.183099,3.21834 0,0.40855 0.115437,1.25054 0.256526,1.87109 1.312981,5.77487 1.784237,7.54296 2.575015,9.66109 0.520392,1.3939 1.064451,2.4474 1.263905,2.4474 0.468349,0 1.161846,-1.22782 2.316361,-4.10104 2.047855,-5.09647 2.696696,-10.13482 2.299939,-17.85938 -0.03363,-0.654843 0.09708,-3.155155 0.290472,-5.556249 0.2206,-2.73888 0.322772,-7.372639 0.274193,-12.435417 -0.0729,-7.597294 -0.235638,-9.574595 -0.690787,-8.393171 -0.275003,0.71382 -1.12971,1.089119 -1.597052,0.70126 -0.43767,-0.363234 -0.348077,-0.807049 0.558715,-2.767679 0.338692,-0.732306 0.703697,-1.684806 0.811124,-2.116667 0.107426,-0.431861 0.397409,-1.082858 0.644406,-1.44666 0.246997,-0.363802 0.593142,-1.494896 0.769212,-2.513542 0.328285,-1.899285 0.403763,-2.148468 1.202148,-3.96875 0.533788,-1.217013 0.834913,-4.986604 0.473471,-5.927075 -0.233355,-0.607189 -0.287738,-0.566061 -1.224512,0.926042 -0.539171,0.858797 -1.052301,1.859106 -1.140289,2.222908 -0.315484,1.304421 -1.145347,1.808646 -1.145347,0.695912 0,-0.553654 0.596392,-1.830076 2.61366,-5.59386 0.511894,-0.955083 0.561341,-1.462736 0.561341,-5.763077 0,-2.593655 0.109525,-5.51245 0.243389,-6.48621 0.133865,-0.973761 0.383889,-2.842036 0.555609,-4.151724 0.29958,-2.284857 1.166438,-6.158024 2.353722,-10.516553 1.140665,-4.187393 2.305164,-6.485464 2.957109,-5.835686 0.246955,0.246133 0.189414,0.61441 -0.258778,1.656261 -0.316989,0.736863 -0.680901,1.844589 -0.808691,2.461614 -0.127791,0.617025 -0.599279,2.782762 -1.047753,4.812747 -0.448473,2.029986 -0.885391,4.292174 -0.970927,5.027084 -0.08554,0.73491 -0.260469,1.668175 -0.388739,2.073923 -0.436228,1.379883 -0.712506,16.859361 1.108606,24.897473 0.79635,3.460291 1.702707,4.882525 1.979409,5.379581 10.368345,38.172615 5.203696,-32.08179 35.383262,-35.266191 4.239722,-0.447355 -0.157743,-19.843787 -0.38782,-20.433429 -0.294889,-0.75574 -0.307759,-1.83091 -0.02402,-2.006272 0.545785,-0.337314 1.628257,2.760995 2.604389,7.45442 0.535898,2.576698 0.736493,4.475675 0.859053,8.132213 l 0.15988,4.770515 c 0,0 8.21355,8.277998 13.49376,12.060374 2.94911,1.784229 9.00472,4.669067 11.30896,5.387493 2.18713,0.681913 2.48937,0.70906 6.73525,0.604962 4.083,-0.100104 4.62707,-0.172397 6.67432,-0.88684 2.99851,-1.046408 3.13785,-1.335029 1.47051,-3.045792 -2.40352,-2.466104 -7.19418,-5.750467 -9.15589,-6.277053 -1.11435,-0.299131 -2.5992,-1.809598 -4.70179,-4.782928 -0.78483,-1.109852 -1.50397,-2.077444 -1.59808,-2.150204 -0.14622,-0.113041 -4.30208,-5.948918 -5.65247,-7.937501 -0.24705,-0.363802 -1.04481,-1.49477 -1.77281,-2.513263 -1.34945,-1.887927 -1.59312,-2.51382 -0.97866,-2.51382 0.43117,0 1.59596,1.196141 3.41121,3.503032 0.77176,0.980782 2.39632,2.987301 3.61014,4.458932 1.21381,1.47163 3.3918,4.449406 4.83996,6.617281 2.52545,3.780534 2.66952,3.941589 3.52611,3.941589 0.4912,0 1.08141,0.07227 1.3116,0.160599 0.96238,0.369302 -0.0905,-2.656261 -1.19315,-3.428577 -0.40773,-0.285581 -0.75653,-1.192098 -1.30424,-3.389578 -0.8928,-3.582071 -1.07812,-4.051983 -3.47866,-8.82057 -1.57755,-3.133761 -2.71013,-5.08032 -6.54263,-11.244792 -0.22618,-0.3638017 -0.63833,-1.0781767 -0.91589,-1.5874996 -1.1192,-2.0537439 -2.30666,-3.7063517 -3.84402,-5.3497999 -0.88962,-0.9510004 -1.6154,-1.8925129 -1.61284,-2.0922501 0.003,-0.1997372 -0.80113,-1.10261051 -1.78594,-2.00638521 l -1.79058,-1.64322669 1.60973,-0.010419 1.60972,-0.010419 1.96215,2.15137658 c 1.07919,1.18325713 2.06607,2.46317902 2.19307,2.84427092 0.12701,0.3810918 0.59538,1.0783333 1.04083,1.5494255 l 0.80991,0.8565313 1.20813,-0.6931622 c 1.83324,-1.0518195 2.58513,-1.8645771 4.06431,-4.39333791 l 1.35421,-2.31510419 h 1.15378 c 1.07476,0 1.14115,0.040773 0.96939,0.5953125 -0.8081,2.60904204 -3.40369,5.5827885 -6.22815,7.1355434 -1.13137,0.6219716 -1.56062,1.0097404 -1.56062,1.4097924 0,0.3035104 1.42931,2.8586144 3.17623,5.6780082 1.74693,2.819395 3.71899,6.234523 4.38235,7.589175 0.80494,1.643769 1.35317,2.463002 1.64823,2.463002 0.65009,0 3.64439,-3.324413 4.64706,-5.159375 1.31946,-2.414728 1.59129,-3.674144 1.23144,-5.705388 -0.16593,-0.93662 -0.53166,-2.1517275 -0.81275,-2.7002391 -0.29316,-0.5720937 -0.84388,-3.000061 -1.29168,-5.6947218 -0.42935,-2.58358531 -0.85952,-4.9030063 -0.95594,-5.1542687 -0.14761,-0.3846724 -0.0121,-0.4568409 0.85798,-0.4568409 h 1.03329 l 0.70222,4.4317709 c 0.38622,2.437474 0.76786,4.9317221 0.84808,5.5427734 0.0802,0.6110514 0.375,1.5040202 0.65507,1.9843751 0.28007,0.4803549 0.64132,1.6134601 0.80279,2.5180111 0.24453,1.369948 0.22054,1.895851 -0.14368,3.148696 -0.41449,1.425796 -1.37704,3.289188 -2.5593,4.954539 -0.54326,0.765233 -3.59409,2.866855 -4.64665,3.200924 -0.3184,0.101055 -0.57881,0.324541 -0.57869,0.496636 2.9e-4,0.4238 0.89342,2.750062 1.15668,3.012716 0.1161,0.11583 1.12368,0.213998 2.23908,0.218151 3.50202,0.01304 4.09304,0.673866 5.58701,6.246938 0.89226,3.328467 1.00102,4.989538 0.41805,6.38478 l -0.38855,0.929933 1.24844,1.175211 c 2.68551,2.527966 3.49741,3.582072 3.49741,4.54074 0,1.188255 -1.09353,2.126527 -3.1997,2.745422 -0.85914,0.252455 -1.56223,0.557452 -1.56244,0.67777 -5.1e-4,0.308687 2.82435,5.378387 3.73778,6.708077 1.0656,1.551205 0.99207,1.796461 -0.65722,2.19212 -1.15439,0.276933 -1.8411,0.276834 -3.70547,-5.38e-4 -1.25866,-0.187258 -2.34134,-0.287603 -2.40595,-0.22299 -0.0646,0.06461 0.01,0.618368 0.16505,1.230566 0.24081,0.948701 0.3658,1.092405 0.84639,0.973045 0.31011,-0.07702 1.0401,0.02117 1.62218,0.21821 2.73714,0.92654 2.98594,5.657259 0.50438,9.590518 -1.55035,2.457289 -2.40074,3.294362 -4.47313,4.40307 -1.97159,1.054779 -2.25268,1.131055 -4.10104,1.112853 -1.09141,-0.01075 -2.2225,-0.06688 -2.51354,-0.124741 -0.49983,-0.09937 -0.5273,0.02748 -0.4954,2.287991 0.0336,2.3809 0.0395,2.400878 1.15297,3.889779 0.9624,1.286891 1.39069,1.6096 3.0567,2.303162 1.06562,0.443617 2.16931,0.806576 2.45265,0.806576 0.28334,0 0.65755,0.171575 0.83159,0.381277 0.25959,0.312779 0.11737,0.506937 -0.79158,1.080736 -2.19463,1.385407 -4.37508,1.815066 -5.4369,1.071341 -0.83914,-0.587759 -1.14667,-0.149563 -1.42265,2.027102 -0.24901,1.964026 -1.01517,6.136354 -1.61612,8.801003 -0.1641,0.727604 -0.75046,7.037911 -1.30303,8.202081 -0.55257,1.16417 -1.47247,3.1287 -2.04422,4.36562 -1.26075,2.72752 -1.63146,3.09606 -2.67816,2.6625 -1.27191,-0.52684 -2.02223,-7.02111 -2.94373,-11.55676 -0.50547,-2.487967 -0.6386,-2.559501 -1.91239,-1.02761 -2.23856,2.69213 -6.45677,6.71068 -7.24018,6.89746 -0.42692,0.10179 -0.95876,0.34276 -1.18186,0.53549 -0.2231,0.19272 -1.23513,0.76519 -2.24896,1.27214 l -1.84332,0.92172 -4.630204,0.1425 c -5.119865,0.15757 -7.424486,0.36035 -7.767347,0.68342 -0.382913,0.36081 0.912321,0.99239 3.250755,1.58515 3.629915,0.92012 4.455746,1.57791 5.201452,4.14304 0.451362,1.55263 0.293691,1.4629 3.416184,1.94427 3.85621,0.59448 5.05831,0.80226 6.08541,1.05187 0.58209,0.14145 1.48845,0.26003 2.01414,0.2635 1.32698,0.009 4.68277,1.44557 5.75944,2.46596 2.15397,2.04136 5.28032,7.93416 7.02266,13.23687 1.59397,4.85117 1.89049,5.85078 2.40748,8.11599 0.82171,3.60036 1.08506,4.36418 2.82783,8.20208 1.19334,2.62796 2.06116,5.01991 2.06116,5.68113 0,0.58464 0.20737,0.78437 1.27493,1.22803 1.33374,0.55428 2.05617,1.42874 2.58157,3.12486 0.20507,0.66201 0.48721,0.97301 1.00939,1.11267 1.01663,0.27188 2.46811,1.43583 2.94815,2.36413 0.22283,0.4309 0.42308,1.46517 0.445,2.29836 0.0364,1.38227 0.13569,1.61942 1.1344,2.70859 0.602,0.65653 1.65874,1.93783 2.34831,2.84733 0.68957,0.90951 1.34969,1.65365 1.46692,1.65365 0.25428,0 0.47763,-1.49962 1.62633,-10.91986 0.13791,-1.13097 0.43591,-3.39316 0.66222,-5.02708 0.22632,-1.63392 0.51528,-3.74468 0.64215,-4.69056 0.55046,-4.10412 1.21883,-7.14375 1.5708,-7.14375 0.0901,0 0.35716,0.22571 0.59337,0.50158 0.42151,0.49229 0.47043,0.49208 2.63849,-0.0111 1.21496,-0.28194 4.62242,-1.2921 7.57215,-2.2448 6.30131,-2.03517 6.00243,-1.74801 6.84864,-6.58011 1.97462,-11.27557 2.50446,-14.00708 2.78186,-14.34133 0.37262,-0.44897 1.13014,-0.43271 3.6045,0.0774 4.23765,0.87357 8.90901,3.72183 11.20034,6.82919 0.88853,1.20497 0.94781,2.04219 0.3605,5.09138 -0.79838,4.145 -0.96952,5.0074 -1.20013,6.04757 -0.12905,0.58208 -0.47254,2.30849 -0.76331,3.83646 -1.03303,5.42847 -3.1581,14.24008 -4.59425,19.05 -0.36932,1.23693 -1.09161,3.8563 -1.60507,5.82083 -0.51347,1.96453 -1.11854,4.2623 -1.34459,5.10614 -0.55785,2.08245 -0.52364,2.4891 0.29055,3.45463 1.54694,1.83445 1.76207,3.60256 0.88399,7.26529 -0.54083,2.25598 -0.48572,2.75441 0.38439,3.47654 0.60361,0.50095 0.5044,1.07207 -0.18399,1.05912 -0.3875,-0.007 -0.82012,-0.35365 -1.23929,-0.99219 -0.71716,-1.09247 -0.83988,-3.05656 -0.31017,-4.96449 0.44435,-1.60049 0.35729,-3.32156 -0.2117,-4.1846 -0.46629,-0.70729 -0.51928,-0.72542 -0.76702,-0.26251 -0.26877,0.5022 -1.04147,3.10924 -1.28324,4.32957 -0.12698,0.64094 -0.24764,0.98492 -0.83532,2.38125 l -0.27838,0.66146 -0.0179,-0.71199 c -0.01,-0.39159 0.10115,-0.78557 0.24667,-0.87551 0.14553,-0.0899 0.26459,-0.4986 0.26459,-0.90815 0,-0.40955 0.23045,-1.62291 0.51211,-2.69637 0.67198,-2.56095 0.79891,-3.07217 1.0759,-4.33298 0.32186,-1.46507 1.04834,-4.57439 1.32911,-5.68854 0.49356,-1.95854 1.54118,-6.55285 1.84013,-8.06979 0.44845,-2.27564 1.00028,-4.75062 2.03523,-9.12813 1.36174,-5.75971 1.57866,-6.72208 2.32583,-10.31875 0.37788,-1.81901 0.79784,-3.78354 0.93323,-4.36562 0.51064,-2.19532 0.80313,-3.9179 0.68527,-4.03576 -0.0671,-0.0671 -0.75422,0.23363 -1.52684,0.66838 -5.46476,3.07505 -7.08341,3.85264 -11.63993,5.59172 -5.39818,2.06032 -10.36924,3.6236 -13.15263,4.13618 -2.06522,0.38032 -5.03839,1.16725 -6.57627,1.74057 -0.48064,0.17919 -0.59531,0.42503 -0.59531,1.27631 0,0.5799 -0.29784,3.46972 -0.66186,6.42182 -0.36403,2.95209 -0.84331,6.85573 -1.06507,8.67474 -0.22176,1.81901 -0.51316,4.14072 -0.64755,5.15937 -0.13439,1.01865 -0.37801,2.92365 -0.54139,4.23333 -0.16337,1.30969 -0.45764,3.39329 -0.65393,4.63021 -0.61208,3.85704 -1.0055,7.41915 -0.83792,7.58673 0.0884,0.0883 1.0483,-0.50746 2.13321,-1.32403 1.08492,-0.81657 2.66558,-1.83837 3.5126,-2.27067 2.04458,-1.0435 5.11213,-2.22792 5.29542,-2.04463 0.3428,0.3428 -0.25166,1.01125 -1.30237,1.46446 -1.08661,0.4687 -6.41272,4.01102 -7.48996,4.98147 -3.1879,2.87187 -3.75963,3.24838 -4.92086,3.24058 l -1.15469,-0.008 0.92604,-0.83184 c 1.53973,-1.3831 1.84841,-2.0252 1.85034,-3.849 9.6e-4,-0.90951 -0.10049,-1.65365 -0.22544,-1.65365 -0.48088,0 -6.61015,4.261 -7.59719,5.28149 l -1.03917,1.07439 -6.04403,-0.0691 -6.04402,-0.0691 -0.39366,-1.05834 c -0.21652,-0.58208 -0.44916,-1.35599 -0.51698,-1.71979 -0.0678,-0.3638 -0.22921,-1.07817 -0.35863,-1.5875 -0.12942,-0.50932 -0.37737,-1.49159 -0.55099,-2.18281 -0.17362,-0.69122 -0.41766,-1.25677 -0.54232,-1.25677 -0.38788,0 -1.02725,-1.86329 -1.03247,-3.00888 -0.007,-1.51079 -0.93126,-7.63339 -1.44317,-9.55883 -0.23214,-0.87312 -0.7278,-2.42094 -1.10147,-3.43958 -0.37367,-1.01865 -0.83483,-2.32834 -1.0248,-2.91042 -0.31164,-0.95491 -3.05847,-6.43072 -4.46614,-8.90323 -0.72849,-1.27958 -2.19527,-2.87073 -2.64633,-2.87073 -0.19541,0 -0.67225,-0.47894 -1.05963,-1.06432 -0.38739,-0.58538 -0.87213,-1.26999 -1.07722,-1.52135 -1.88772,-2.31375 -2.25752,-2.72033 -2.25752,-2.48206 0,0.1507 0.10943,0.34163 0.24317,0.42429 0.13375,0.0827 0.37148,0.74854 0.52829,1.47975 0.32895,1.53386 -1.5e-4,3.51592 -0.71493,4.30574 -1.04073,1.15 -3.299456,1.55493 -4.893671,0.87732 -1.199099,-0.50967 -2.839101,-2.19309 -3.578292,-3.67301 -0.595595,-1.19244 -1.374147,-1.69178 -1.374147,-0.88134 0,0.47214 0.858309,2.0019 1.124479,2.00414 0.10914,9.2e-4 0.198437,0.11983 0.198437,0.26425 0,0.292 0.310138,0.6771 3.181342,3.95029 1.094895,1.24818 2.286463,2.68615 2.64793,3.19547 1.191822,1.67933 3.791502,7.72306 4.267842,9.92187 0.1261,0.58209 0.39336,1.47506 0.5939,1.98438 0.20054,0.50932 0.5119,1.46182 0.69191,2.11667 0.18001,0.65484 0.48091,1.66687 0.66865,2.24895 1.03277,3.20201 1.2427,4.30273 1.6963,8.8945 0.27284,2.76195 0.60645,5.16479 0.74136,5.33965 0.13491,0.17487 0.31957,0.5263 0.41035,0.78096 0.15658,0.43925 -1.29814,0.46144 -28.335492,0.43233 -15.675303,-0.0169 -28.262426,-0.0803 -27.971384,-0.1409 3.015155,-0.62794 5.333335,-1.36422 7.458163,-2.3688 1.046052,-0.49456 2.058083,-0.90298 2.248958,-0.90761 0.190875,-0.005 0.578161,-0.18322 0.860636,-0.39687 0.282475,-0.21366 0.901518,-0.38846 1.375652,-0.38846 1.520587,0 3.104343,-2.06262 3.421909,-4.45654 0.186104,-1.40292 -0.04593,-1.73257 -0.680943,-0.96742 -0.181157,0.21828 -0.5917,0.39687 -0.912318,0.39687 -0.320617,0 -0.868859,0.30435 -1.218315,0.67633 -0.849282,0.90402 -2.882218,2.23409 -3.414674,2.23409 -1.166766,0 0.287164,-2.59766 2.588121,-4.62405 l 0.614688,-0.54134 -1.742373,-4.46053 c -0.958305,-2.45328 -2.016191,-4.78593 -2.350856,-5.18366 -0.775107,-0.92116 -1.112364,-2.89189 -1.63126,-9.53209 -0.469524,-6.00839 -0.492474,-7.14375 -0.144405,-7.14375 0.307187,0 0.774396,0.83144 1.098635,1.95511 0.130616,0.45266 0.419873,2.90661 0.642793,5.45323 0.31035,3.54539 0.534627,4.89829 0.95726,5.77444 0.353404,0.73263 0.643501,1.05267 0.80646,0.88972 0.417654,-0.41766 -0.276482,-10.06055 -1.007739,-13.99946 -0.357256,-1.92436 -0.575286,-3.79476 -0.484509,-4.15645 0.09078,-0.36168 -0.01568,-1.16845 -0.236569,-1.79282 -0.22089,-0.62438 -0.600354,-1.78527 -0.843254,-2.57976 -0.2429,-0.79449 -1.216105,-3.0515 -2.162677,-5.01557 -1.517851,-3.14944 -1.944589,-3.79209 -3.614504,-5.44328 -2.182947,-2.15848 -3.661162,-2.78099 -6.60371,-2.78099 -1.646718,0 -1.909064,0.0899 -4.314881,1.47885 -1.408858,0.81337 -4.121743,2.24994 -6.028633,3.19239 -1.90689,0.94245 -3.74598,1.9736 -4.086867,2.29146 -0.340886,0.31786 -1.233855,1.7081 -1.984375,3.08944 -2.989739,5.50262 -3.769598,8.17208 -3.539507,12.11577 0.179354,3.07408 0.704861,5.43042 1.76854,7.93003 0.432893,1.01728 1.149226,3.14461 1.591851,4.7274 0.769158,2.75043 1.984695,6.7811 2.383886,7.90487 0.437357,1.2312 0.861683,2.47462 1.331313,3.90119 0.275202,0.83596 0.84082,2.26471 1.256929,3.175 0.416108,0.91028 1.096524,2.4885 1.512036,3.50714 1.153438,2.82771 1.027349,2.75778 5.304685,2.94202 3.046112,0.1312 4.274824,0.0624 7.001729,-0.39222 1.81901,-0.30325 3.962135,-0.73637 4.7625,-0.96251 2.147991,-0.6069 4.721195,-1.05533 4.919245,-0.85728 0.429943,0.42994 -0.256846,1.00194 -1.66556,1.38718 -0.843642,0.23071 -1.716395,0.51819 -1.939453,0.63885 -0.223058,0.12066 -0.787239,0.30321 -1.253737,0.40567 -0.466497,0.10246 -0.9161,0.2962 -0.999118,0.43052 -0.08302,0.13433 -0.560632,0.24423 -1.061367,0.24423 -0.500735,0 -0.910427,0.11906 -0.910427,0.26458 0,0.14552 -0.368628,0.26459 -0.819174,0.26459 -0.450546,0 -1.491829,0.19554 -2.313961,0.43454 -1.94639,0.56583 -8.642225,0.37751 -10.234655,-0.28785 -0.918249,-0.38367 -1.059007,-0.38537 -1.427069,-0.0173 -0.333578,0.33358 -0.348734,0.50378 -0.08278,0.92964 0.179056,0.28671 0.325556,0.58244 0.325556,0.65718 0,0.20188 -2.264199,0.16474 -2.469444,-0.0405 z m 94.625316,-22.64392 c 0.22059,-0.90951 0.70935,-2.46274 1.08614,-3.45162 0.74626,-1.95855 0.8412,-2.83989 0.39561,-3.67247 -0.28052,-0.52417 -0.30348,-0.51751 -0.74363,0.21583 -0.2498,0.41618 -0.66352,1.28561 -0.91939,1.93206 -0.25586,0.64645 -0.69513,1.49827 -0.97615,1.89293 -0.36869,0.51777 -0.51095,1.16058 -0.51095,2.30872 0,1.91337 0.1684,2.42819 0.79425,2.42819 0.36111,0 0.56796,-0.39132 0.87412,-1.65364 z m -1.67842,-6.40404 c 0.61788,-0.7445 1.33297,-2.38036 1.33297,-3.04934 0,-0.37202 -0.27876,-1.09098 -0.61947,-1.5977 -0.75025,-1.11584 -3.4291,-7.33413 -3.87339,-8.99111 -0.43012,-1.60417 -2.72584,-8.91471 -4.0297,-12.83229 -1.08632,-3.26394 -3.21159,-7.80632 -4.79809,-10.25503 -1.86746,-2.88237 -3.34767,-3.66674 -8.08193,-4.28265 -1.74532,-0.22706 -3.48555,-0.53155 -3.86717,-0.67664 -0.38163,-0.1451 -0.99651,-0.26381 -1.36641,-0.26381 -0.53584,0 -0.63428,0.0941 -0.48431,0.46302 0.45919,1.12952 1.1913,3.96445 1.1913,4.61306 0,0.42473 0.8922,2.18701 2.21063,4.36647 2.73815,4.52636 2.70406,4.46195 3.89493,7.35849 0.82618,2.00949 1.08085,2.39374 1.63126,2.46123 0.78457,0.0962 4.46544,2.96801 6.73331,5.25331 1.17168,1.18069 1.77412,2.04305 2.11667,3.02987 0.37792,1.08874 0.74613,1.5726 1.74729,2.29605 0.98265,0.71008 1.68008,1.6122 3.09522,4.00365 1.94023,3.27879 2.36635,4.52787 2.37672,6.96683 0.007,1.54067 0.21089,1.83458 0.79017,1.13659 z M 102.28653,147.6926 c -0.18407,-0.22179 -0.40356,-0.33438 -0.48775,-0.25019 -0.0842,0.0842 0.0221,0.26383 0.23614,0.39921 0.56011,0.35423 0.6333,0.31089 0.25161,-0.14902 z m 66.42524,-5.41778 c 3.00209,-1.23104 3.92387,-1.67957 7.47676,-3.63822 4.14347,-2.28422 5.63707,-3.62068 5.3504,-4.78753 -0.29164,-1.18708 -0.82273,-1.77665 -3.22347,-3.57843 -2.79606,-2.09848 -5.5082,-3.50637 -7.57753,-3.93354 -1.80401,-0.3724 -1.88845,-0.30355 -2.1472,1.75046 -0.50574,4.01464 -1.5354,8.7032 -2.70067,12.29742 -0.48861,1.50709 -0.82656,2.84017 -0.75102,2.96241 0.14219,0.23006 1.08981,-0.0544 3.57273,-1.07257 z M 88.439874,124.42175 c 2.065726,-4.91319 -1.758451,-7.25021 -1.758451,-12.28628 0,-0.27252 -0.188332,-0.56775 -0.418515,-0.65608 -0.230183,-0.0883 -2.184843,-0.1606 -4.34369,-0.1606 -3.337287,0 -4.110069,-0.0793 -5.15967,-0.52917 -0.678973,-0.29104 -1.566217,-0.52917 -1.971653,-0.52917 -0.924369,0 -5.21225,-0.72547 -6.098139,-1.03175 -0.363802,-0.12578 -1.375834,-0.43811 -2.248959,-0.69406 -0.873125,-0.25596 -2.764057,-0.92219 -4.202071,-1.48051 -1.438014,-0.55831 -2.727583,-0.94527 -2.865709,-0.85991 -0.138126,0.0854 -0.17841,0.44499 -0.08952,0.79915 0.371759,1.48121 0.930193,5.05896 0.934717,5.98852 0.0063,1.28992 0.324092,1.57194 4.767375,4.23055 4.658952,2.78766 6.804635,3.94456 10.980209,5.92029 3.788133,1.79242 5.027082,2.20529 6.624174,2.2075 0.587359,8.1e-4 1.777984,0.28998 2.645834,0.6426 0.86785,0.35262 1.744134,0.62051 1.947297,0.59531 0.203164,-0.0252 0.768711,-0.99557 1.256771,-2.15639 z m 6.708216,-14.81947 c 3.789918,-0.34478 5.90334,-0.69496 8.6048,-1.42576 1.81074,-0.48984 6.255,-4.446 9.19063,-8.181252 3.7318,-4.748271 5.55221,-8.74649 6.28883,-13.812342 0.41154,-2.830231 0.84353,-7.854691 0.79986,-9.303114 -0.0205,-0.678571 0.0875,-1.310814 0.23984,-1.404983 0.64428,-0.398187 0.91567,1.373295 0.91094,5.946042 -0.006,6.046374 -0.49376,8.535749 -2.56482,13.096875 -1.22312,2.693697 -1.31956,3.706036 -0.62387,6.548434 0.24042,0.98227 0.62762,7.35211 0.86045,8.33438 0.41812,1.76399 0.75035,2.44739 1.18978,2.44739 0.3393,0 1.03273,-1.47369 1.03273,-2.19481 0,-0.34847 0.23074,-0.84241 0.51277,-1.09764 0.6826,-0.61774 1.57145,-8.39024 2.3874,-12.847129 0.17317,-0.945886 0.42011,-2.255573 0.54875,-2.910417 0.64117,-3.263802 0.77807,-6.658283 0.69894,-17.330209 -0.0464,-6.257395 -0.14779,-13.07123 -0.22531,-15.141855 -0.13378,-3.573226 -0.11454,-3.773155 0.37819,-3.929539 0.3804,-0.120736 0.82045,0.130961 1.64671,0.941871 1.04897,1.029488 1.27119,1.124466 3.18746,1.362372 1.13293,0.140653 2.21343,0.196808 2.40111,0.124787 0.39924,-0.153204 0.11368,-1.422987 -0.54666,-2.43079 -0.22331,-0.340828 -0.40603,-0.800201 -0.40603,-1.02083 0,-0.603011 1.20461,-0.790415 2.18483,-0.339898 1.14744,0.527371 3.82688,1.407224 4.89277,1.606646 0.73616,0.137731 0.8599,0.08505 0.8599,-0.366077 0,-0.289828 -0.66433,-1.85159 -1.47628,-3.470583 l -1.47628,-2.943623 -5.22257,0.186979 c -4.26539,0.152709 -5.41322,0.116388 -6.26278,-0.198175 -1.51725,-0.561785 -4.02861,-1.036707 -4.36914,-0.826247 -0.21002,0.129801 -0.26837,3.008419 -0.20392,10.060513 0.0697,7.625325 0.0152,9.953786 -0.23896,10.207922 -0.68638,0.686378 -0.9172,-0.265684 -1.14286,-4.713833 -0.12431,-2.45051 -0.29803,-5.169848 -0.38603,-6.042973 -0.088,-0.873125 -0.25619,-3.564886 -0.37376,-5.981691 -0.13402,-2.754725 -0.34927,-4.67968 -0.57695,-5.159375 -0.26346,-0.555089 -0.98067,-1.076552 -2.61214,-1.899211 -4.08662,-2.060662 -7.24083,-4.217773 -10.39142,-7.106523 -1.77948,-2.058398 -2.78433,-4.4428 -4.80602,-5.259561 l -3.850411,1.668231 c -3.910393,1.694218 -15.870681,5.681874 -16.179627,10.063767 -0.365215,5.179979 -5.866219,30.661589 -7.844998,33.572815 -7.444088,9.732319 -8.59788,-2.598505 -11.417441,-7.392219 l -0.64716,-1.104296 c -0.355939,-0.607362 -0.970233,-2.081812 -1.3651,-3.276554 -0.744953,-2.253994 -1.300954,-2.758012 -1.593653,-1.444654 -0.15396,0.690823 -0.521901,1.639896 -1.294511,3.339077 -0.268455,0.590406 -0.278394,0.973103 -0.04467,1.719792 0.35515,1.134592 0.404896,17.032758 0.07255,23.185403 l -0.214381,3.96875 1.722142,2.910417 c 2.25942,3.81841 2.437036,4.01774 4.144276,4.65076 0.800364,0.29676 2.229114,0.82497 3.175,1.17379 3.566618,1.31528 11.324624,2.97789 16.404167,3.51556 3.474586,0.36778 9.501226,0.33494 14.022917,-0.0764 z m -38.449515,-0.45331 c 1.014224,-0.36675 1.049417,-0.58622 0.508538,-3.17135 -0.369608,-1.76653 -0.976996,-3.01308 -1.307235,-2.68284 -0.09609,0.0961 -0.177616,0.83947 -0.181174,1.65196 -0.0036,0.81249 -0.127702,2.00322 -0.275878,2.64607 -0.262977,1.14091 -0.189005,1.87389 0.189112,1.87389 0.103376,0 0.583362,-0.14298 1.066637,-0.31773 z m -18.627843,-4.98482 c 0.579104,-0.53952 0.962155,-2.36405 1.664153,-7.926612 0.22956,-1.819011 0.523515,-3.570931 0.653232,-3.893156 0.411803,-1.022941 -0.120133,-0.870079 -1.473919,0.423559 -2.080765,1.988317 -4.103101,3.481573 -5.629164,4.15647 -0.776062,0.343212 -1.343387,0.733457 -1.260722,0.867213 0.08267,0.133755 0.656911,0.50667 1.276101,0.8287 0.61919,0.32203 1.185332,0.664206 1.258092,0.760392 0.249488,0.329812 1.612461,0.825574 2.269712,0.825574 0.361522,0 0.724909,0.17615 0.807527,0.39145 0.156257,0.4072 -0.61128,2.20136 -1.669596,3.90277 -0.337641,0.54281 -0.613893,1.03802 -0.613893,1.10047 0,0.2134 2.189062,-0.94361 2.718477,-1.43683 z m -8.803894,-8.909276 c 0,-0.669687 -0.0132,-0.674905 -0.528232,-0.208807 -0.400677,0.362608 -0.457328,0.563478 -0.234604,0.831844 0.406162,0.489395 0.762836,0.198086 0.762836,-0.623037 z M 130.07309,85.918787 c 0,-0.14552 -0.0893,-0.266209 -0.19844,-0.268196 -0.10914,-0.002 -0.46633,-0.0754 -0.79375,-0.16315 -0.43765,-0.117287 -0.59531,-0.04626 -0.59531,0.268196 0,0.298871 0.23913,0.427734 0.79375,0.427734 0.43656,0 0.79375,-0.119063 0.79375,-0.264584 z m 2.26227,-12.056915 c 0.95486,-0.275355 1.68816,-0.743044 2.56933,-1.638687 1.60645,-1.632833 3.63507,-5.507679 3.63507,-6.943303 0,-1.336378 -0.40104,-1.360852 -1.60175,-0.09775 -0.50149,0.527546 -1.54027,1.241921 -2.3084,1.5875 -2.3036,1.036372 -5.76849,0.766046 -6.44769,-0.50304 -0.46394,-0.866892 0.36241,-1.287044 2.42034,-1.230602 2.6746,0.07335 4.1487,-0.250401 5.36046,-1.177318 0.59416,-0.454488 1.1196,-0.946015 1.16766,-1.092283 0.15287,-0.465339 -1.37701,-0.950568 -2.46161,-0.780739 -1.35554,0.212253 -4.00128,-0.236827 -5.41265,-0.91873 -0.62398,-0.301472 -1.23121,-0.548131 -1.34939,-0.548131 -0.11819,0 -0.21489,1.107281 -0.21489,2.460625 0,1.353344 -0.11293,2.573734 -0.25096,2.711979 -0.20117,0.201477 -0.36522,4.545939 -0.29206,7.73436 0.0266,1.160614 2.07647,1.332979 5.18654,0.436121 z m 4.96179,-36.653611 c -0.0475,-1.78983 -0.68071,-4.862773 -1.36808,-6.6397 -0.35164,-0.909019 -1.36793,-1.577031 -2.47651,-1.627815 -0.62869,-0.0288 -0.85327,0.06906 -0.81971,0.357207 0.0626,0.537291 1.13835,3.358033 2.30364,6.04022 0.52659,1.212069 0.95743,2.346437 0.95743,2.520816 0,0.52082 0.81959,1.529012 1.14917,1.413613 0.20104,-0.07039 0.28821,-0.778659 0.25406,-2.064341 z M 99.545363,34.741079 C 0,0 0,0 99.545363,34.741079 Z M 162.35226,191.20556 c 0,-2.32497 -1.19859,-2.80226 -2.61402,-1.04094 -0.46778,0.58209 -1.01646,1.05834 -1.21929,1.05834 -0.69648,0 -0.73144,-0.58833 -0.0686,-1.15379 0.75311,-0.64244 3.68356,-4.53574 4.27528,-5.68001 0.21512,-0.416 0.46891,-1.34269 0.56398,-2.05931 0.24636,-1.85717 -0.3318,-2.52251 -2.33643,-2.68875 -2.09761,-0.17395 -2.73062,0.0521 -3.39925,1.21386 -0.79251,1.37702 -2.35855,2.06362 -2.33975,1.02582 0.006,-0.3474 2.33203,-2.84744 3.24158,-3.48451 0.80415,-0.56325 3.24145,-0.50808 4.589,0.10387 1.51731,0.68903 1.95329,1.41783 1.95329,3.26519 0,1.76784 -0.41908,2.91979 -1.72202,4.73339 -0.93556,1.30223 -1.12602,1.9222 -0.67598,2.20034 0.46799,0.28923 1.07508,1.81213 1.07508,2.69684 0,0.76803 -0.0877,0.88539 -0.66145,0.88539 -0.5971,0 -0.66146,-0.10467 -0.66146,-1.07573 z m 6.92774,0.34813 c 0.0498,-0.43317 0.24432,-0.72761 0.48059,-0.72761 0.23627,0 0.43076,0.29444 0.4806,0.72761 0.0682,0.59249 -0.0211,0.7276 -0.4806,0.7276 -0.45952,0 -0.54877,-0.13511 -0.48059,-0.7276 z m -10.36733,-5.21927 c 0,-0.75281 -0.18684,-1.15911 -0.79375,-1.72605 -0.89401,-0.83513 -1.01776,-1.32699 -0.33072,-1.3145 1.45073,0.0264 2.59457,2.80506 1.52135,3.69575 -0.34069,0.28275 -0.39688,0.18998 -0.39688,-0.6552 z m -47.94954,-8.1744 c -1.47006,-0.65199 -3.46709,-3.12901 -3.79331,-4.70501 -0.23476,-1.13417 -0.17017,-4.05005 0.10536,-4.75668 0.44124,-1.13161 1.566,-1.746 3.26199,-1.78182 1.35467,-0.0286 1.60854,0.0599 2.64583,0.92261 1.74636,1.45243 2.60323,2.98978 2.59945,4.66378 -0.005,2.26567 -0.86595,4.9438 -1.82602,5.68091 -0.52953,0.40656 -2.05023,0.39447 -2.9933,-0.0238 z M 0.98572808,97.583523 l 0.006827,-3.198069 1.76787042,-0.0056 c 2.4442982,-0.0077 4.7603866,-0.885472 7.6967135,-2.916917 1.636103,-1.131908 2.502362,-1.584423 2.684473,-1.402312 0.386373,0.386373 -2.684255,3.180523 -4.7527459,4.324809 C 7.4334002,94.914017 5.6210108,96.367977 4.1663846,97.772872 2.7647067,99.126629 1.4741092,100.3574 1.2983901,100.50792 1.0512709,100.7196 0.98044735,100.05717 0.98572808,97.583523 Z M 0.95642102,80.518085 v -1.431952 l 1.05694688,-0.17857 c 0.5813207,-0.09821 1.1241287,-0.287272 1.2062399,-0.420131 0.082111,-0.132859 0.3781032,-0.241561 0.65776,-0.241561 0.2796569,0 1.5170441,-0.472488 2.7497494,-1.049974 1.8309211,-0.857731 2.4426684,-1.30583 3.3411984,-2.447396 0.6049534,-0.768582 1.2060084,-1.43711 1.3356774,-1.485617 0.129669,-0.04851 0.235762,-0.248897 0.235762,-0.445312 0,-0.252855 -0.289673,-0.329896 -0.992188,-0.263879 -1.1122918,0.104524 -1.7522292,0.326169 -4.115654,1.425477 -3.446829,1.603236 -4.166963,1.88545 -4.8111501,1.88545 -0.6000713,0 -0.66434188,-0.103692 -0.66434188,-1.071834 0,-0.990144 0.0756197,-1.102714 0.99218748,-1.477008 2.2725843,-0.928041 8.8129035,-4.175175 10.7413645,-5.332865 1.828677,-1.097788 2.19998,-1.458004 3.113777,-3.0208 1.069378,-1.828873 1.856108,-2.591243 2.674043,-2.591243 0.324816,0 0.470295,0.203892 0.470295,0.65913 0,0.750702 -1.548344,4.367954 -1.869678,4.367954 -0.116231,0 -0.286577,0.237083 -0.378545,0.526851 -0.09197,0.289768 -0.984534,1.089336 -1.983478,1.776817 l -1.816261,1.249967 0.42053,0.711899 c 0.36416,0.616475 0.372633,0.830491 0.06321,1.59662 -0.872525,2.160386 -4.2358152,5.781383 -6.2504585,6.729391 -1.669705,0.785693 -5.0108857,1.960538 -5.5756418,1.960538 -0.5513336,0 -0.60134768,-0.119095 -0.60134768,-1.431952 z m 0.013283,-35.536775 c 0.0115015,-0.635902 0.23328608,-0.838628 1.65364588,-1.511546 0.9021996,-0.42743 1.7976954,-0.933446 1.9899908,-1.124479 0.1922954,-0.191032 0.4601861,-0.347332 0.5953125,-0.347332 0.4777654,0 0.2352083,0.442365 -0.6142113,1.120172 C 4.1214992,43.495517 3.4368898,44.064071 3.0730877,44.381578 2.7092856,44.699086 2.0842075,45.129155 1.6840252,45.337287 0.97339303,45.706882 0.95673086,45.698578 0.96970402,44.98131 Z M 5.7189211,40.398887 c 0,-0.303366 0.6157327,-1.145414 1.4026719,-1.918229 1.7879933,-1.755902 2.2115774,-2.449308 2.4443193,-4.001342 0.158699,-1.058281 0.097664,-1.379803 -0.3861531,-2.034201 -1.0129307,-1.370062 0.2225886,-1.865034 1.4232458,-0.570178 0.544103,0.58679 0.672166,0.992073 0.672166,2.127207 0,1.835205 -0.681236,3.138053 -2.748874,5.257154 -1.7148512,1.757535 -2.8073759,2.20102 -2.8073759,1.139589 z M 5.9799732,25.192656 c -0.3965483,-0.477811 -0.197913,-2.656691 0.444918,-4.880417 0.5431899,-1.87904 3.0141416,-6.681471 4.8379528,-9.402828 0.780206,-1.1641669 2.401016,-3.0733363 3.601799,-4.2425988 1.995986,-1.9435909 7.559961,-6.19921641 8.653992,-6.61903557 0.89743,-0.34437603 0.446853,0.54175556 -0.673592,1.32472627 -2.35885,1.6483727 -5.655538,4.5986228 -7.520398,6.7301041 -2.178266,2.489696 -3.881634,5.186756 -5.8666617,9.289096 -1.5292367,3.160382 -2.1445644,4.992377 -2.1486982,6.397247 -0.00158,0.535309 -0.1899622,1.160387 -0.4186378,1.389062 -0.5086793,0.50868 -0.5007667,0.508552 -0.9106741,0.01464 z M 24.239755,-1.4013927 22.25538,-2.4352046 l 2.422625,-0.00842 c 2.214589,-0.0077 2.411813,0.032926 2.29671,0.4730821 -0.06925,0.264827 0.06095,0.6365931 0.289354,0.8261468 0.228398,0.18955376 0.415269,0.4491271 0.415269,0.57682968 0,0.52034407 -1.571576,0.13936207 -3.439583,-0.83382508 z m 6.214769,-0.5262438 c -0.24208,-0.3916939 -0.01237,-0.5919109 0.5526,-0.481654 0.413342,0.080666 0.417727,0.1235663 0.04426,0.4331112 -0.29754,0.2466162 -0.465981,0.2603154 -0.596864,0.048543 z m 101.110676,0.085757 c -0.29797,-0.2979695 -0.18147,-0.610168 0.22768,-0.610168 0.21828,0 0.39688,0.1120358 0.39688,0.2489684 0,0.3336337 -0.41317,0.5725833 -0.62456,0.3611996 z"
       id="path1"
       sodipodi:nodetypes="cssssssssssssssssssssssscsssssssssscccssssscssssscsscssssscsssssssssssscsscsssssssssssssssssssssssssscssssssssssssssssssssssscssssssssssssssssssssssssssssssssssssssssssssssscsssssssssssssssssssssscscccssscsscssssssssssssscsssssssssssscsssssssscssssssssssssssssssssssscsssssscsssssssssssssssssssssscsssssssssscssssssccsssssssssscssssssssscsssssccsssscccssssscsssssscssssssssssssssssssscscsssssssscssssssssssssssssssssssssssssssssssssssssssccssssssssssssssssssssssssssscssssssssssssssssssssssscsssssssssssscccsssssssssssssssssssscsssscsssssscssscsssssscssssssssscsssssssssssssssssssssssssssssssssssssssscsscsssssscsssssssssscsssssssssssssssssssssssscssssccssssssccssssssssssssssssssscssssscsssssssssssssssscsssssssssccccssssscsssssssss" /><path
       style="fill:#f1f1f1;fill-opacity:0;stroke:#999999;stroke-width:2.2262;stroke-linecap:round;stroke-linejoin:round;stroke-opacity:1;paint-order:markers fill stroke"
       d="m 107.1143,98.095452 -1.42742,5.819588 c 0,0 5.14277,-0.0101 -0.0843,2.93658 -1.99019,1.12191 -14.02406,2.79768 -14.02406,2.79768 L 90.197322,98.596564 Z"
       id="path2"
       sodipodi:nodetypes="ccsccc" /><path
       style="fill:none;fill-opacity:1;stroke:#999999;stroke-width:1.856;stroke-linecap:round;stroke-linejoin:round;stroke-opacity:1;paint-order:markers fill stroke"
       d="m 65.144254,86.378243 7.47394,7.172853 0.744028,5.908774"
       id="path5"
       sodipodi:nodetypes="ccc" /></g></svg>
